<svg width="20" height="16" viewBox="0 0 20 16" fill="none" xmlns="http://www.w3.org/2000/svg">
<path d="M18.125 0.5H1.875C0.839453 0.5 0 1.33945 0 2.375V13.625C0 14.6605 0.839453 15.5 1.875 15.5H18.125C19.1605 15.5 20 14.6605 20 13.625V2.375C20 1.33945 19.1605 0.5 18.125 0.5ZM18.125 2.375V3.96895C17.2491 4.68219 15.8528 5.79125 12.8677 8.12871C12.2098 8.64617 10.9067 9.88934 10 9.87484C9.09344 9.88949 7.78988 8.64598 7.1323 8.12871C4.14766 5.7916 2.75098 4.6823 1.875 3.96895V2.375H18.125ZM1.875 13.625V6.37492C2.77008 7.08785 4.03941 8.08828 5.97414 9.60328C6.82793 10.2754 8.32312 11.759 10 11.75C11.6686 11.759 13.1449 10.2969 14.0255 9.60359C15.9602 8.08863 17.2299 7.08793 18.125 6.37496V13.625H1.875Z" fill="white"/>
</svg>
